# xmcd
#
# Track frame offsets:
#	150
#	22939
#	38063
#	53868
#	68539
#	83713
#	100463
#	109571
#	127940
#	163056
#	191479
#	208576
#	225227
#	243306
#	258874
#	272548
#	289790
#
# Disc length: 4316 seconds
# Revision: 0
# Processed by: cddbd v1.5.2PL0 Copyright (c) Steve Scherf et al.
# Submitted via: dBpowerAMP V12.0
#
DISCID=d610da11
DTITLE=Various Artist - Nuclear Evolution: The Age of Love, Disc 1
DYEAR=2009
DGENRE=R&B
TTITLE0=Sa-Ra feat. Debi Nova - Spacefruit
TTITLE1=Sa-Ra feat. Erykah Badu - Dirty Beauty
TTITLE2=Sa-Ra feat. Noni Limar - I Swear
TTITLE3=Sa-Ra - Melodee N Mynor
TTITLE4=Sa-Ra - He Say She Say
TTITLE5=Sa-Ra - Traffika
TTITLE6=Sa-Ra - Souls Brother
TTITLE7=Sa-Ra - Bitch Baby
TTITLE8=Sa-Ra - Love Czars
TTITLE9=Sa-Ra feat. Rozzi Daime - Gemini's Rising
TTITLE10=Sa-Ra - The Bone Song
TTITLE11=Sa-Ra feat. Lil' Kenny and Rozzi Daime - White Cloud
TTITLE12=Sa-Ra - Move Your Ass
TTITLE13=Sa-Ra - Love Today
TTITLE14=Sa-Ra - Can I Get U Hi?
TTITLE15=Sa-Ra feat. Erika Rose - My Star
TTITLE16=Sa-Ra feat. Gary Bartz Quintet - Cosmic Ball
EXTD=
EXTT0=
EXTT1=
EXTT2=
EXTT3=
EXTT4=
EXTT5=
EXTT6=
EXTT7=
EXTT8=
EXTT9=
EXTT10=
EXTT11=
EXTT12=
EXTT13=
EXTT14=
EXTT15=
EXTT16=
PLAYORDER=
